<svg id="SvgjsSvg1001" width="288" height="288" xmlns="http://www.w3.org/2000/svg" version="1.1" xmlns:xlink="http://www.w3.org/1999/xlink" xmlns:svgjs="http://svgjs.com/svgjs"><defs id="SvgjsDefs1002"></defs><g id="SvgjsG1008" transform="matrix(1,0,0,1,0,0)"><svg xmlns="http://www.w3.org/2000/svg" enable-background="new 0 0 296.789 296.789" viewBox="0 0 296.789 296.789" width="288" height="288"><path d="M55.093 110.761l6.544 17.743c.246.668.882 1.111 1.593 1.111.711 0 1.347-.443 1.593-1.111l6.544-17.743c5.297-14.364 16.62-25.687 30.983-30.983l17.743-6.544c.667-.246 1.11-.882 1.11-1.593 0-.711-.443-1.347-1.11-1.593l-17.744-6.544c-14.363-5.297-25.686-16.619-30.982-30.982l-6.544-17.743c-.246-.667-.882-1.11-1.593-1.11-.711 0-1.347.443-1.593 1.11l-6.544 17.743C49.796 46.885 38.474 58.207 24.11 63.504L6.366 70.048c-.667.246-1.11.882-1.11 1.593 0 .711.443 1.347 1.11 1.593l17.743 6.544C38.473 85.074 49.796 96.396 55.093 110.761zM198.948 185.703l-17.742-6.543c-14.364-5.297-25.687-16.619-30.983-30.982l-6.544-17.743c-.246-.667-.882-1.11-1.593-1.11-.711 0-1.347.443-1.593 1.11l-6.544 17.742c-5.297 14.364-16.62 25.686-30.983 30.983l-17.743 6.543c-.667.246-1.11.882-1.11 1.593 0 .711.443 1.347 1.11 1.593l17.744 6.545c14.363 5.297 25.685 16.619 30.982 30.982l6.544 17.744c.246.667.882 1.11 1.593 1.11.711 0 1.347-.443 1.593-1.11l6.544-17.744c5.297-14.363 16.619-25.686 30.982-30.982l17.744-6.545c.667-.246 1.11-.882 1.11-1.593C200.059 186.585 199.615 185.949 198.948 185.703zM290.778 109.811l-12.059-4.447c-9.761-3.6-17.456-11.295-21.056-21.056l-4.447-12.058c-.168-.453-.6-.755-1.083-.755-.483 0-.915.302-1.083.755l-4.446 12.057c-3.6 9.762-11.295 17.457-21.057 21.057l-12.058 4.447c-.453.167-.755.599-.755 1.082s.302.916.755 1.083l12.059 4.446c9.761 3.601 17.456 11.296 21.056 21.057l4.446 12.06c.168.453.6.755 1.083.755.483 0 .915-.302 1.083-.755l4.447-12.06c3.6-9.762 11.294-17.456 21.056-21.056l12.059-4.447c.453-.167.755-.6.755-1.083S291.231 109.978 290.778 109.811zM261.567 268.552l-8.412-3.103c-6.809-2.511-12.176-7.878-14.687-14.686l-3.103-8.41c-.116-.316-.418-.526-.755-.526s-.639.21-.755.526l-3.103 8.41c-2.511 6.809-7.878 12.176-14.686 14.686l-8.412 3.103c-.316.116-.526.418-.526.755 0 .337.21.639.526.755l8.411 3.103c6.81 2.511 12.177 7.879 14.688 14.688l3.103 8.411c.116.316.418.526.755.526s.639-.21.755-.526l3.103-8.411c2.511-6.809 7.878-12.177 14.688-14.688l8.411-3.103c.316-.116.526-.418.526-.755C262.094 268.97 261.884 268.668 261.567 268.552zM199.533 26.726l-8.412-3.102c-6.809-2.511-12.176-7.878-14.686-14.687l-3.103-8.41C173.216.21 172.914 0 172.577 0c-.337 0-.639.21-.755.526l-3.102 8.409c-2.511 6.809-7.879 12.177-14.688 14.688l-8.412 3.102c-.316.116-.526.418-.526.755 0 .337.21.639.526.755l8.411 3.103c6.81 2.511 12.178 7.879 14.689 14.689l3.102 8.41c.116.316.418.526.755.526.337 0 .639-.21.755-.526l3.103-8.411c2.511-6.81 7.878-12.177 14.688-14.687l8.411-3.103c.316-.116.526-.418.526-.755C200.06 27.144 199.85 26.842 199.533 26.726zM96.359 251.26l-10.58-3.9c-8.564-3.158-15.316-9.91-18.476-18.475l-3.901-10.58c-.147-.397-.526-.662-.95-.662-.424 0-.803.265-.95.662l-3.901 10.579c-3.158 8.565-9.91 15.317-18.476 18.476l-10.578 3.9c-.399.146-.662.526-.662.95 0 .424.264.804.662.95l10.579 3.902c8.564 3.158 15.316 9.91 18.475 18.475l3.901 10.58c.147.398.526.662.95.662.424 0 .804-.264.95-.662l3.902-10.581c3.158-8.564 9.909-15.315 18.474-18.474l10.581-3.902c.398-.146.662-.526.662-.95C97.021 251.786 96.758 251.406 96.359 251.26z" fill="#66ccff" class="color000 svgShape"></path></svg></g></svg>